<?xml version="1.0" standalone="no"?>
<!DOCTYPE svg PUBLIC "-//W3C//DTD SVG 20010904//EN"
 "http://www.w3.org/TR/2001/REC-SVG-20010904/DTD/svg10.dtd">
<svg version="1.0" xmlns="http://www.w3.org/2000/svg"
 width="392.000000pt" height="140.000000pt" viewBox="0 0 392.000000 140.000000"
 preserveAspectRatio="xMidYMid meet">

<g transform="translate(0.000000,140.000000) scale(0.100000,-0.100000)"
fill="#000000" stroke="none">
<path d="M2360 1318 c-79 -128 -156 -642 -149 -990 4 -151 9 -191 24 -176 3 3
11 57 17 121 6 64 15 121 19 128 5 9 16 6 42 -10 40 -24 77 -27 115 -7 29 16
104 90 119 119 9 17 12 15 37 -17 44 -58 84 -49 132 30 11 18 13 18 36 -3 30
-28 42 -29 80 -1 l31 21 17 -23 c24 -31 40 -23 91 47 23 32 46 62 51 68 12 13
28 -12 28 -43 0 -13 13 -37 29 -53 26 -26 33 -28 58 -18 15 6 35 17 45 25 15
14 17 11 28 -39 21 -104 71 -103 132 3 l38 64 6 -31 c6 -33 37 -73 55 -73 27
0 67 33 94 79 17 28 32 51 35 51 3 0 13 -71 22 -157 24 -217 66 -375 105 -390
25 -10 26 5 4 50 -30 63 -58 183 -76 327 -23 189 -21 226 20 324 43 103 81
252 97 371 12 98 7 139 -18 149 -56 21 -109 -149 -138 -442 -15 -147 -16 -150
-62 -231 -68 -122 -88 -121 -110 5 -7 42 -16 79 -19 83 -9 8 -22 -15 -56 -104
-33 -85 -53 -115 -77 -115 -13 0 -14 13 -9 83 6 80 33 176 64 224 30 45 85 41
102 -7 10 -29 41 -42 41 -17 0 23 -40 78 -63 86 -55 20 -103 -23 -152 -135
-45 -104 -78 -146 -113 -142 -21 2 -30 12 -45 53 -42 110 -35 100 -59 79 -11
-11 -41 -48 -67 -84 -53 -75 -60 -67 -41 47 9 51 10 77 3 84 -13 13 -16 9 -43
-71 -28 -84 -57 -130 -80 -130 -26 0 -40 30 -40 87 0 27 -6 57 -13 67 -12 17
-14 16 -24 -6 -6 -13 -16 -49 -22 -79 -20 -97 -66 -147 -91 -100 -15 29 -12
140 5 197 17 57 19 74 5 74 -15 0 -31 -38 -52 -119 -20 -83 -82 -188 -128
-221 -28 -20 -73 -26 -104 -14 -26 10 -19 48 24 129 45 85 54 161 24 186 -15
12 -20 10 -38 -14 -12 -15 -38 -67 -58 -115 l-37 -87 -1 50 c0 92 21 179 72
300 78 184 109 282 115 366 6 83 -5 119 -37 119 -12 0 -29 -14 -40 -32z m40
-71 c0 -69 -24 -163 -72 -282 -42 -101 -47 -76 -18 76 24 128 67 269 80 269 6
0 10 -28 10 -63z m1308 -109 c-6 -95 -52 -297 -74 -324 -13 -17 -14 -12 -9 51
13 149 60 355 81 355 4 0 4 -37 2 -82z m-1343 -490 c-8 -40 -51 -138 -61 -138
-9 0 1 46 26 113 23 62 46 78 35 25z"/>
<path d="M231 1296 c-25 -30 -33 -176 -10 -176 5 0 9 21 9 48 0 26 5 54 11 62
15 21 4 -193 -20 -395 -43 -356 -41 -345 -67 -351 -28 -7 -28 -8 -9 -37 12
-18 14 -58 13 -197 -2 -178 5 -220 36 -220 22 0 27 29 11 60 -11 22 -15 64
-15 167 0 203 14 209 111 53 104 -167 177 -219 270 -191 29 9 49 25 74 59 38
52 58 99 46 107 -11 6 -26 -12 -54 -66 -42 -80 -130 -99 -196 -43 -26 22 -191
263 -191 279 0 3 26 35 57 71 76 84 186 260 223 356 57 147 107 388 81 388
-16 0 -27 -33 -41 -120 -15 -94 -71 -262 -120 -360 -56 -111 -217 -318 -234
-299 -2 2 7 84 19 181 41 315 57 575 39 622 -8 20 -28 21 -43 2z"/>
<path d="M1251 1264 c-58 -41 -145 -323 -188 -609 -8 -47 -11 -51 -53 -72 -80
-39 -96 -39 -132 -2 -60 64 -103 141 -102 184 0 53 23 97 57 109 42 15 59 -8
65 -93 2 -39 8 -71 12 -71 4 0 13 19 19 43 21 84 -23 157 -95 157 -89 0 -124
-149 -58 -245 24 -36 24 -38 8 -64 -45 -71 -90 -121 -107 -121 -18 0 -19 7
-16 116 4 110 3 117 -18 131 -19 13 -24 12 -42 -6 -28 -28 -26 -41 5 -41 l26
0 -7 -84 c-8 -90 4 -150 31 -160 25 -10 73 22 107 71 18 25 40 55 49 67 17 21
17 21 32 1 25 -32 19 -54 -29 -107 -38 -43 -45 -56 -45 -93 0 -74 46 -95 111
-49 46 31 60 64 57 128 -3 42 0 51 23 68 14 11 41 20 60 21 32 2 34 0 39 -38
7 -52 16 -65 44 -65 23 0 61 36 111 103 15 20 32 37 37 37 5 0 29 -20 54 -45
27 -29 52 -45 67 -45 24 0 90 42 116 73 21 26 29 21 36 -23 7 -43 39 -90 60
-90 8 0 42 25 76 55 34 30 66 55 70 55 5 0 25 24 43 53 51 79 138 150 122 99
-14 -42 -46 -200 -46 -225 0 -44 27 -87 55 -87 39 0 113 118 131 209 12 60
-19 30 -46 -45 -33 -86 -57 -124 -81 -124 -16 0 -19 8 -19 44 0 25 7 75 16
112 18 78 22 160 8 174 -6 6 -20 4 -38 -5 -40 -21 -46 -19 -46 14 0 39 -22 57
-44 36 -9 -9 -16 -24 -17 -33 0 -9 -1 -42 -2 -72 -2 -40 -8 -64 -25 -88 -32
-44 -48 -41 -56 12 -10 67 -44 110 -88 114 -30 3 -42 -3 -71 -31 -19 -19 -37
-49 -40 -66 -7 -36 -82 -121 -106 -121 -9 0 -37 20 -61 45 -61 63 -77 60 -145
-25 -58 -73 -69 -80 -79 -54 -15 40 -3 87 50 195 119 243 188 471 166 554 -10
36 -28 41 -61 19z m27 -97 c-7 -77 -75 -284 -129 -387 l-40 -75 6 50 c10 91
72 319 108 398 45 96 62 101 55 14z m361 -483 c8 -15 15 -44 15 -64 1 -34 0
-35 -34 -35 -29 0 -36 4 -38 23 -2 12 1 22 7 22 6 0 11 7 11 15 0 19 -11 19
-36 0 -10 -8 -22 -15 -26 -15 -17 0 -6 40 17 69 31 36 62 31 84 -15z m-30
-143 c12 -8 12 -12 2 -25 -20 -24 -41 -19 -41 9 0 26 14 31 39 16z m-705 -111
c-1 -36 -7 -48 -33 -72 -36 -32 -44 -34 -64 -13 -20 20 -12 46 30 95 46 53 68
50 67 -10z"/>
<path d="M600 800 c-12 -8 -12 -10 3 -16 21 -8 35 2 21 16 -5 5 -15 6 -24 0z"/>
</g>
</svg>
